# xmcd
#
# Track frame offsets: 
#        150
#        18476
#        39543
#        49671
#        74387
#        91455
#        118851
#        132856
#        154583
#        173488
#        197617
#        217135
#
# Disc length: 3300 seconds
#
# Revision: 0
# Processed by: cddbd v1.4PL0 Copyright (c) Steve Scherf et al.
# Submitted via: ExactAudioCopy v0.90b4
#
DISCID=a50ce20c
DTITLE=James Harman - Lonesome Moon Trance
DYEAR=2003
DGENRE=Blues
TTITLE0=Double Hogback Growler
TTITLE1=Lowdown Grown-Up Jive
TTITLE2=Skeet-A-Little Taste
TTITLE3=Piecework Politicians
TTITLE4=Alibi, Reason Why (Sounds Just Like A Lie To Me)
TTITLE5=Miss Bessie Mae Blues
TTITLE6=My Secret Escapade
TTITLE7=Bad-Luck Life
TTITLE8=Love Stuff
TTITLE9=Time Will Tell
TTITLE10=It's Yo' World (I'm Just Livin' In It Now)
TTITLE11=Lovesome Moon Trance
EXTD=
EXTT0=
EXTT1=
EXTT2=
EXTT3=
EXTT4=
EXTT5=
EXTT6=
EXTT7=
EXTT8=
EXTT9=
EXTT10=
EXTT11=
PLAYORDER=
